/* XPM */
static char * D:\1euro\images\CCz\bitcoin16_xpm[] = {
"16 16 109 2",
"  	c None",
". 	c #3E3E3E",
"+ 	c #404040",
"@ 	c #3B3B3B",
"# 	c #535353",
"$ 	c #A0A0A0",
"% 	c #D6D6D6",
"& 	c #F3F3F3",
"* 	c #F2F2F2",
"= 	c #D5D5D5",
"- 	c #9B9B9B",
"; 	c #515151",
"> 	c #7E7E7E",
", 	c #EDEDED",
"' 	c #D3D3D3",
") 	c #CCCCCC",
"! 	c #CDCDCD",
"~ 	c #D7D7D7",
"{ 	c #EAEAEA",
"] 	c #777777",
"^ 	c #EEEEEE",
"/ 	c #C6C6C6",
"( 	c #E7E7E7",
"_ 	c #E8E8E8",
": 	c #E6E6E6",
"< 	c #E4E4E4",
"[ 	c #C8C8C8",
"} 	c #ECECEC",
"| 	c #545454",
"1 	c #C5C5C5",
"2 	c #E3E3E3",
"3 	c #E2E2E2",
"4 	c #C7C5C6",
"5 	c #D9D7D8",
"6 	c #EFEFEF",
"7 	c #4F4F4F",
"8 	c #9F9F9F",
"9 	c #B6B4B5",
"0 	c #B0ADAE",
"a 	c #D7D6D7",
"b 	c #EBEBEB",
"c 	c #D8D8D8",
"d 	c #939393",
"e 	c #D2D2D2",
"f 	c #E0E0E0",
"g 	c #A6A3A4",
"h 	c #B3AFB0",
"i 	c #A4A0A1",
"j 	c #B8B5B6",
"k 	c #F1F1F1",
"l 	c #D9D9D9",
"m 	c #CBCBCB",
"n 	c #373737",
"o 	c #F0F0F0",
"p 	c #D4D4D4",
"q 	c #E9E9E9",
"r 	c #CECCCC",
"s 	c #D4D0D0",
"t 	c #D0CFCF",
"u 	c #C9C4C4",
"v 	c #F4F4F4",
"w 	c #3C3C3C",
"x 	c #D1D1D1",
"y 	c #B7B0B0",
"z 	c #DDDBDB",
"A 	c #B1A9A9",
"B 	c #E1E1E1",
"C 	c #978B8B",
"D 	c #CEC9C9",
"E 	c #C0BABA",
"F 	c #DADADA",
"G 	c #E1DFDF",
"H 	c #DBD8D8",
"I 	c #ABA1A1",
"J 	c #B9B1B1",
"K 	c #978A8A",
"L 	c #C1BABA",
"M 	c #DBDBDB",
"N 	c #C9C9C9",
"O 	c #999999",
"P 	c #EAE9E9",
"Q 	c #E7E6E6",
"R 	c #E1E0E0",
"S 	c #D8D6D6",
"T 	c #D9D6D6",
"U 	c #8D8D8D",
"V 	c #505050",
"W 	c #C7C7C7",
"X 	c #CAC5C5",
"Y 	c #D1CCCC",
"Z 	c #4D4D4D",
"` 	c #767676",
" .	c #D2CECE",
"..	c #E4E3E3",
"+.	c #C6C0C0",
"@.	c #9F9595",
"#.	c #BCB5B5",
"$.	c #6D6D6D",
"%.	c #747474",
"&.	c #CAC8C8",
"*.	c #B4AEAE",
"=.	c #BCB6B6",
"-.	c #C8C5C5",
";.	c #4E4E4E",
">.	c #919191",
",.	c #CACACA",
"'.	c #8C8C8C",
").	c #4C4C4C",
"!.	c #363636",
"            . + + @             ",
"        # $ % & * = - ;         ",
"      > , = ' ) ! ~ ~ { ]       ",
"    > ^ / ( _ : ( < : [ } ]     ",
"  | } 1 ( 2 3 4 5 { 6 ^ ) : 7   ",
"  8 = ( , 6 4 9 0 a } 6 b c d   ",
". e = 2 : f g h i j { k 6 l m n ",
"+ o p b ^ q { r s t u v o c ( w ",
"+ ^ x { { y z A B C k D E F : w ",
"@ x = q v G H I J K , L z M N n ",
"  O l : _ < P Q R { S Q T F U   ",
"  V ( W q o X Y k } } { ' 3 Z   ",
"    ` b ) :  ...+.@.#.' ( $.    ",
"      %.: F &.p *.=.-.2 $.      ",
"        ;.>.) q ( ,.'.).        ",
"            !.@ @ n             "};
